<?xml version="1.0" encoding="UTF-8"?>
<svg xmlns="http://www.w3.org/2000/svg" xmlns:xlink="http://www.w3.org/1999/xlink" width="300" height="290" viewBox="0 0 58 64">
<path d="M0 0 C0.48975968 5.87711622 -0.62928552 10.09611773 -4 15 C-4.99 15.66 -5.98 16.32 -7 17 C-7.65163361 19.55474897 -7.94677339 22.07333442 -8.27734375 24.6875 C-9 27 -9 27 -10.89453125 28.3046875 C-13.36084348 29.11916538 -15.41902782 29.14338734 -18 29 C-18.06058594 28.36191406 -18.12117188 27.72382812 -18.18359375 27.06640625 C-18.26738281 26.24011719 -18.35117187 25.41382812 -18.4375 24.5625 C-18.51871094 23.73878906 -18.59992187 22.91507813 -18.68359375 22.06640625 C-18.78930815 20.01337975 -18.78930815 20.01337975 -20 19 C-21.51469448 18.76807135 -23.03754562 18.58784762 -24.5625 18.4375 C-25.38878906 18.35371094 -26.21507812 18.26992188 -27.06640625 18.18359375 C-28.02353516 18.09271484 -28.02353516 18.09271484 -29 18 C-29.31424507 14.54330418 -29.37956836 12.60098323 -27.5 9.625 C-23.86748926 7.26386802 -21.28156703 7.7145622 -17 8 C-16.7215625 7.13375 -16.7215625 7.13375 -16.4375 6.25 C-12.46868156 0.03793635 -6.70986881 -0.47086799 0 0 Z " fill="#B671F8" transform="translate(47,18)"/>
<path d="M0 0 C-0.1378259 5.51303609 -2.4855652 8.46639304 -6.078125 12.36328125 C-8.613889 14.52280384 -10.69773614 15 -14 15 C-14.66 14.01 -15.32 13.02 -16 12 C-15.06558465 10.72689688 -14.12732889 9.456612 -13.1875 8.1875 C-12.66542969 7.47980469 -12.14335937 6.77210937 -11.60546875 6.04296875 C-8.03544724 1.50009466 -6.05523092 0 0 0 Z " fill="#FCF9FE" transform="translate(44,21)"/>
<path d="M0 0 C3.25696479 0.41755959 4.63443291 0.63443291 7 3 C6.84359209 6.04995417 6.44814854 7.53525337 4.3125 9.75 C1.5501694 11.24315168 -0.89686272 11.64737076 -4 12 C-4.75 9.875 -4.75 9.875 -5 7 C-3.51209453 4.42096386 -2.11387131 2.11387131 0 0 Z " fill="#BA79F8" transform="translate(20,38)"/>
</svg>